<?xml version="1.0" encoding="iso-8859-1"?>
<!-- Uploaded to: SVG Repo, www.svgrepo.com, Generator: SVG Repo Mixer Tools -->
<svg height="800px" width="800px" version="1.1" id="Layer_1" xmlns="http://www.w3.org/2000/svg" xmlns:xlink="http://www.w3.org/1999/xlink" 
	 viewBox="0 0 512.466 512.466" xml:space="preserve">
<g transform="translate(1 1)">
	<path style="fill:#FFDD09;" d="M84.751,502.933h341.333v-68.267H84.751V502.933z"/>
	<path style="fill:#FD9808;" d="M400.485,502.933h25.6v-68.267h-25.6V502.933z"/>
	<path style="fill:#FFFFFF;" d="M84.751,502.933h25.6v-68.267h-25.6V502.933z"/>
	<path style="fill:#FFDD09;" d="M383.418,434.666h-256L221.285,8h68.267L383.418,434.666z"/>
	<path style="fill:#FD9808;" d="M289.551,8h-25.6l93.867,426.667h25.6L289.551,8z"/>
	<path style="fill:#FFFFFF;" d="M221.285,8h25.6l-93.867,426.667h-25.6L221.285,8z"/>
	<path style="fill:#FFDD09;" d="M460.218,272.533h-409.6l59.733-85.333h290.133L460.218,272.533z"/>
	<path style="fill:#FD9808;" d="M400.485,187.2h-25.6l59.733,85.333h25.6L400.485,187.2z"/>
	<path style="fill:#FFFFFF;" d="M110.351,187.2h25.6l-59.733,85.333h-25.6L110.351,187.2z"/>
	<path style="fill:#FFDD09;" d="M374.885,136H135.951l34.133-51.2h170.667L374.885,136z"/>
	<path style="fill:#FD9808;" d="M340.751,84.8h-25.6l34.133,51.2h25.6L340.751,84.8z"/>
	<path style="fill:#D9D9D9;" d="M170.085,84.8h25.6L161.551,136h-25.6L170.085,84.8z"/>
	<path d="M426.085,511.466H84.751c-5.12,0-8.533-3.413-8.533-8.533v-68.267c0-5.12,3.413-8.533,8.533-8.533h341.333
		c5.12,0,8.533,3.413,8.533,8.533v68.267C434.618,508.053,431.205,511.466,426.085,511.466z M93.285,494.4h324.267v-51.2H93.285
		V494.4z"/>
	<path d="M383.418,443.2h-256c-2.56,0-5.12-0.853-6.827-3.413c-1.707-1.707-1.707-4.267-1.707-6.827L212.751,6.293
		c0.853-4.267,4.267-6.827,8.533-6.827h68.267c4.267,0,7.68,2.56,8.533,6.827l93.867,426.667c0.853,2.56,0,5.12-1.707,6.827
		C388.538,442.346,385.978,443.2,383.418,443.2z M138.511,426.133h234.667l-90.453-409.6h-54.613L138.511,426.133z"/>
	<path d="M460.218,281.066h-409.6c-3.413,0-5.973-1.707-7.68-4.267c-1.707-2.56-0.853-5.973,0.853-8.533l59.733-85.333
		c1.707-2.56,4.267-4.267,6.827-4.267h290.133c2.56,0,5.12,1.707,6.827,3.413l59.733,85.333c1.707,2.56,1.707,5.973,0.853,8.533
		C466.191,279.36,463.631,281.066,460.218,281.066z M66.831,264h377.173l-47.787-68.267h-281.6L66.831,264z"/>
	<path d="M374.885,144.533H135.951c-3.413,0-5.973-1.707-7.68-4.267c-1.707-2.56-1.707-5.973,0-8.533l34.133-51.2
		c2.56-2.56,5.12-4.267,7.68-4.267h170.667c2.56,0,5.12,1.707,6.827,3.413l34.133,51.2c1.707,2.56,1.707,5.973,0,8.533
		S378.298,144.533,374.885,144.533z M152.165,127.466h207.36l-23.04-34.133h-161.28L152.165,127.466z"/>
	<path d="M328.805,195.733c-1.707,0-3.413-0.853-5.12-1.707l-124.587-102.4c-1.707-1.707-3.413-4.267-3.413-6.827
		s0.853-5.12,2.56-6.827l85.333-76.8c3.413-3.413,8.533-2.56,11.947,0.853s2.56,8.533-0.853,11.947l-76.8,70.827l116.907,96.427
		c3.413,3.413,4.267,8.533,0.853,11.947C333.925,194.88,331.365,195.733,328.805,195.733z"/>
	<path d="M182.031,195.733c-2.56,0-5.12-0.853-6.827-3.413c-3.413-3.413-2.56-9.387,0.853-11.947L293.818,84.8l-77.653-69.973
		c-3.413-3.413-3.413-8.533-0.853-11.947c3.413-3.413,8.533-3.413,11.947-0.853l85.333,76.8c1.707,1.707,2.56,3.413,2.56,5.973
		s-0.853,5.12-3.413,5.973L187.151,194.026C185.445,194.88,183.738,195.733,182.031,195.733z"/>
	<path d="M163.258,281.066h-0.853c-2.56,0-5.12-1.707-5.973-4.267l-52.907-85.333c-2.56-4.267-0.853-9.387,2.56-11.947
		c4.267-1.707,9.387-0.853,11.947,3.413l46.933,76.8l84.48-78.507c3.413-3.413,8.533-2.56,11.947,0.853s2.56,8.533-0.853,11.947
		l-92.16,85.333C167.525,280.213,164.965,281.066,163.258,281.066z"/>
	<path d="M347.578,281.066c-1.707,0-4.267-0.853-5.973-2.56l-92.16-85.333c-3.413-3.413-3.413-8.533-0.853-11.947
		c3.413-3.413,8.533-3.413,11.947-0.853l84.48,78.507l46.933-76.8c2.56-4.267,7.68-5.12,11.947-2.56
		c4.267,2.56,5.12,7.68,2.56,11.947L353.551,276.8c0,2.56-1.707,4.267-4.267,4.267C348.431,281.066,348.431,281.066,347.578,281.066
		z"/>
	<path d="M340.751,443.2c-0.853,0-1.707,0-2.56-0.853L140.218,374.08c-3.413-0.853-5.973-4.267-5.973-7.68
		c0-3.413,1.707-6.827,5.12-8.533L345.018,264c4.267-1.707,9.387,0,11.093,4.267s0,9.387-4.267,11.093l-186.027,85.333
		l178.347,61.44c4.267,1.707,6.827,5.973,5.12,11.093C347.578,440.64,344.165,443.2,340.751,443.2z"/>
	<path d="M170.085,443.2c-3.413,0-6.827-2.56-7.68-5.973c-1.707-4.267,0.853-9.387,5.12-11.093l178.347-61.44L159.845,279.36
		c-4.267-1.707-5.973-6.827-4.267-11.093s6.827-5.973,11.093-4.267l205.653,93.867c3.413,1.707,5.12,4.267,5.12,8.533
		c0,3.413-2.56,6.827-5.973,7.68l-197.973,68.267C171.791,443.2,170.938,443.2,170.085,443.2z"/>
	<path d="M127.418,477.333H84.751c-5.12,0-8.533-3.413-8.533-8.533s3.413-8.533,8.533-8.533h42.667c5.12,0,8.533,3.413,8.533,8.533
		S132.538,477.333,127.418,477.333z"/>
	<path d="M426.085,477.333h-42.667c-5.12,0-8.533-3.413-8.533-8.533s3.413-8.533,8.533-8.533h42.667c5.12,0,8.533,3.413,8.533,8.533
		S431.205,477.333,426.085,477.333z"/>
</g>
</svg>